<svg viewBox="0 0 32 32" xml:space="preserve" xmlns="http://www.w3.org/2000/svg"><path fill="none" d="M0 0h32v32H0z"></path><path d="M12 4v4H0v20h2.413l4.002-4h7.644A9 9 0 0 0 23 32a9.002 9.002 0 0 0 9-9V4H12zM5.583 22 2 25.583V10h16v5.517A8.989 8.989 0 0 0 14.059 22H5.583zM23 29.883A6.897 6.897 0 0 1 16.116 23 6.897 6.897 0 0 1 23 16.115 6.897 6.897 0 0 1 29.883 23 6.897 6.897 0 0 1 23 29.883zM23 14c-1.055 0-2.061.19-3.002.523V8H14V6h16v11.349A8.975 8.975 0 0 0 23 14z" fill="#319997" class="fill-000000"></path><path d="M28 24v-2.001h-1.663a3.446 3.446 0 0 0-.245-.606l1.187-1.187-1.416-1.415-1.165 1.166a3.43 3.43 0 0 0-.697-.294V18h-2v1.662a3.366 3.366 0 0 0-.652.27l-1.141-1.14-1.415 1.415 1.14 1.14a3.47 3.47 0 0 0-.271.653H18v2h1.662c.073.246.172.479.295.698l-1.165 1.163 1.413 1.416 1.188-1.187c.192.101.394.182.605.245V28H24v-1.665c.229-.068.445-.158.651-.27l1.212 1.212 1.414-1.416-1.212-1.21c.111-.206.201-.423.27-.651H28zm-5.001.499a1.503 1.503 0 0 1-1.501-1.5 1.505 1.505 0 0 1 1.501-1.501 1.503 1.503 0 0 1 1.5 1.501 1.502 1.502 0 0 1-1.5 1.5z" fill="#319997" class="fill-000000"></path></svg>